#N canvas 11 36 1002 635 10;
#X obj 247 90 unpack f f f f f f;
#X obj 102 383 r v1;
#X obj 307 402 r v2;
#X obj 506 449 r v3;
#X obj 646 461 r v4;
#X obj 894 588 r v5;
#X obj 1136 596 r v6;
#X obj 124 6 dumpOSC 9999;
#X obj 131 143 line 0 20;
#X obj 209 152 line 0 20;
#X obj 408 147 line 0 20;
#X obj 480 146 line 0 20;
#X obj 95 451 line;
#X obj 294 461 line;
#X obj 494 505 line;
#X obj 616 487 line;
#X obj 886 681 line;
#X obj 1107 675 line;
#X obj 59 142 line 0 50;
#X floatatom 59 375 5 0 0 0 - - -;
#X obj -10 430 *~;
#X obj 62 363 hsl 128 8 0 12500 0 1 empty empty tone -2 -6 0 8 -262144
-1 -1 12700 1;
#X obj 10 400 zhzxh~;
#X obj 68 424 vsl 8 64 0 1 0 1 empty empty empty 0 -8 0 8 -262144 -1
-1 0 1;
#X floatatom 263 366 5 0 0 0 - - -;
#X obj 214 414 *~;
#X obj 266 354 hsl 128 8 0 12500 0 1 empty empty tone -2 -6 0 8 -262144
-1 -1 6 1;
#X obj 214 391 zhzxh~;
#X obj 272 415 vsl 8 64 0 1 0 1 empty empty empty 0 -8 0 8 -262144
-1 -1 0 1;
#X floatatom 454 374 5 0 0 0 - - -;
#X obj 401 423 *~;
#X obj 457 362 hsl 128 8 0 12500 0 1 empty empty tone -2 -6 0 8 -262144
-1 -1 281 1;
#X obj 405 399 zhzxh~;
#X obj 463 423 vsl 8 64 0 1 0 1 empty empty empty 0 -8 0 8 -262144
-1 -1 0 1;
#X floatatom 598 442 5 0 0 0 - - -;
#X obj 550 507 *~;
#X obj 601 430 hsl 128 8 0 12500 0 1 empty empty tone -2 -6 0 8 -262144
-1 -1 8 1;
#X obj 549 467 zhzxh~;
#X obj 598 480 vsl 8 64 0 10 0 1 empty empty empty 0 -8 0 8 -262144
-1 -1 0 1;
#X floatatom 847 566 5 0 0 0 - - -;
#X obj 798 621 *~;
#X obj 850 554 hsl 128 8 0 12500 0 1 empty empty tone -2 -6 0 8 -262144
-1 -1 36 1;
#X obj 798 591 zhzxh~;
#X obj 856 603 vsl 8 64 0 10 0 1 empty empty empty 0 -8 0 8 -262144
-1 -1 0 1;
#X floatatom 1075 564 5 0 0 0 - - -;
#X obj 1026 614 *~;
#X obj 1078 552 hsl 128 8 0 12500 0 1 empty empty tone -2 -6 0 8 -262144
-1 -1 32 1;
#X obj 1026 589 zhzxh~;
#X obj 1081 609 vsl 8 64 0 10 0 1 empty empty empty 0 -8 0 8 -262144
-1 -1 0 1;
#X obj 708 275 / 320;
#X obj -26 511 pan~;
#X obj 778 152 unpack f f f f f f;
#X floatatom 766 183 5 0 0 0 - - -;
#X floatatom 803 184 5 0 0 0 - - -;
#X floatatom 814 208 5 0 0 0 - - -;
#X floatatom 851 209 5 0 0 0 - - -;
#X floatatom 857 181 5 0 0 0 - - -;
#X floatatom 894 182 5 0 0 0 - - -;
#X obj 201 516 pan~;
#X obj 374 503 pan~;
#X obj 694 334 cart2pol;
#X floatatom 708 247 5 0 0 0 - - -;
#X obj 713 362 rad2deg;
#X obj 861 20 unpack f f f f f f;
#X floatatom 849 51 5 0 0 0 - - -;
#X floatatom 886 52 5 0 0 0 - - -;
#X floatatom 897 76 5 0 0 0 - - -;
#X floatatom 934 77 5 0 0 0 - - -;
#X floatatom 940 49 5 0 0 0 - - -;
#X floatatom 977 50 5 0 0 0 - - -;
#X floatatom 744 256 5 0 0 0 - - -;
#X obj 676 307 - 0.5;
#X obj 744 284 / 240;
#X obj 714 384 - 90;
#X obj 712 409 * -1;
#X floatatom 718 447 5 0 0 0 - - -;
#X obj 797 275 / 320;
#X obj 783 334 cart2pol;
#X floatatom 797 247 5 0 0 0 - - -;
#X obj 802 362 rad2deg;
#X floatatom 833 256 5 0 0 0 - - -;
#X obj 784 307 - 0.5;
#X obj 833 284 / 240;
#X obj 803 384 - 90;
#X obj 801 409 * -1;
#X floatatom 792 438 5 0 0 0 - - -;
#X obj 903 275 / 320;
#X obj 889 334 cart2pol;
#X floatatom 903 247 5 0 0 0 - - -;
#X obj 908 362 rad2deg;
#X floatatom 939 256 5 0 0 0 - - -;
#X obj 871 307 - 0.5;
#X obj 939 284 / 240;
#X obj 909 384 - 90;
#X obj 907 409 * -1;
#X floatatom 898 438 5 0 0 0 - - -;
#X floatatom 6 459 5 0 0 0 - - -;
#X floatatom 229 462 5 0 0 0 - - -;
#X floatatom 485 397 5 0 0 0 - - -;
#X obj 60 165 / 4;
#X obj 132 164 / 4;
#X obj 1006 520 osc~ 1200;
#X obj 778 524 osc~ 600;
#X obj 542 442 osc~ 480;
#X floatatom 565 102 5 0 0 0 - - -;
#X obj 1119 434 line;
#X floatatom 1071 342 5 0 0 0 - - -;
#X obj 1020 454 dac~;
#X obj 1022 424 *~;
#X obj 1074 330 hsl 128 8 0 12500 0 1 empty empty tone -2 -6 0 8 -262144
-1 -1 19 1;
#X obj 1022 367 zhzxh~;
#X obj 1080 391 vsl 8 64 0 1 0 1 empty empty empty 0 -8 0 8 -262144
-1 -1 0 1;
#X obj 1002 298 osc~ 1200;
#X obj 652 113 bng 15 250 50 0 empty empty empty 17 7 0 10 -262144
-1 -1;
#X obj 1132 374 r v7;
#X floatatom 1067 213 5 0 0 0 - - -;
#X obj 1030 203 osc~;
#X floatatom 1029 166 5 0 0 0 - - -;
#X obj 1079 188 hsl 128 15 0.5 20 0 0 empty empty empty -2 -6 0 8 -262144
-1 -1 0 1;
#X obj 1029 238 dist~ 1;
#X obj 993 396 fdn~ 16 40000;
#X obj 1082 128 + 48;
#X msg 1119 409 \$1 1250;
#X obj 1066 99 random 60;
#X obj 212 7 nbx 5 34 -1e+037 1e+037 0 0 empty empty empty 0 -8 0 20
-262144 -1 -1 0 256;
#X obj 215 328 osc~ 140;
#X obj -36 113 change;
#X obj 404 370 osc~ 455;
#X obj 698 473 hsl 128 8 -45 45 0 1 empty empty tone -2 -6 0 8 -262144
-1 -1 6450 1;
#X obj 804 494 hsl 128 8 -45 45 0 1 empty empty tone -2 -6 0 8 -262144
-1 -1 7497 1;
#X obj 897 481 hsl 128 8 -45 45 0 1 empty empty tone -2 -6 0 8 -262144
-1 -1 1053 1;
#X obj 877 527 line;
#X floatatom 829 437 5 0 0 0 - - -;
#X obj 719 508 line;
#X obj 952 527 line;
#X msg 934 507 \$1 100;
#X obj -43 535 lop~ 5000;
#X obj 25 536 lop~ 5000;
#X obj 160 540 lop~ 5000;
#X obj 228 541 lop~ 5000;
#X obj 338 527 lop~ 5000;
#X obj 405 527 lop~ 5000;
#X obj 24 562 s~ ch1r;
#X obj -42 561 s~ ch1l;
#X obj 160 562 s~ ch2l;
#X obj 226 563 s~ ch2r;
#X obj 338 564 s~ ch3l;
#X obj 404 565 s~ ch3r;
#X obj 502 575 s~ ch4l;
#X obj 568 577 s~ ch4r;
#X obj 769 693 s~ ch5l;
#X obj 833 692 s~ ch5r;
#X obj 964 685 s~ ch6l;
#X obj 1019 685 s~ ch6r;
#N canvas 19 51 1005 546 ooout 1;
#X obj -89 19 r~ ch1l;
#X obj -74 40 r~ ch2l;
#X obj -57 123 r~ ch3l;
#X obj -90 70 +~;
#X obj -91 94 compressor~;
#X obj -91 128 +~;
#X obj -68 151 compressor~;
#X obj 58 56 +~;
#X obj 57 80 compressor~;
#X obj 57 114 +~;
#X obj 56 138 compressor~;
#X obj 57 14 r~ ch4l;
#X obj 72 35 r~ ch5l;
#X obj 89 107 r~ ch6l;
#X obj -2 196 +~;
#X obj 47 218 compressor~;
#X obj 195 58 +~;
#X obj 194 82 compressor~;
#X obj 194 116 +~;
#X obj 193 140 compressor~;
#X obj 289 44 +~;
#X obj 288 68 compressor~;
#X obj 288 102 +~;
#X obj 287 126 compressor~;
#X obj 327 193 +~;
#X obj 356 217 compressor~;
#X obj 196 7 r~ ch1r;
#X obj 211 28 r~ ch2r;
#X obj 228 111 r~ ch3r;
#X obj 320 95 r~ ch6r;
#X obj 302 23 r~ ch5r;
#X obj 288 2 r~ ch4r;
#X obj -2 269 hip~ 15;
#X obj 325 272 hip~ 15;
#X obj 169 239 +~;
#X obj 163 415 dac~ 5;
#X obj 501 349 dac~ 6;
#N canvas 186 109 450 300 (subpatch) 0;
#X array \$0-gain 256 float 3;
#A 0 0.8464 1.0139 1.0474 1.0675 1.0675 1.0541 1.0273 1.0273 1.0072
1.0072 1.0005 0.9938 0.9804 0.967 0.967 0.9603 0.9469 0.9335 0.9268
0.9134 0.9134 0.9067 0.899999 0.866499 0.846399 0.832999 0.832999 0.826299
0.826299 0.84975 0.84305 0.83635 0.82295 0.81625 0.81625 0.81625 0.81625
0.81625 0.81625 0.81625 0.81625 0.81625 0.81625 0.82295 0.83635 0.83635
0.83635 0.83635 0.83635 0.82965 0.82295 0.82295 0.82295 0.82295 0.82295
0.82295 0.82295 0.82295 0.82295 0.82295 0.82295 0.82295 0.82295 0.82295
0.82965 0.82965 0.84305 0.84975 0.85645 0.86315 0.86315 0.86315 0.86315
0.86315 0.86315 0.86315 0.86315 0.86315 0.86315 0.86315 0.86315 0.87655
0.87655 0.87655 0.87655 0.88325 0.88325 0.88325 0.88325 0.88325 0.88325
0.88325 0.88325 0.88325 0.88325 0.88325 0.88325 0.88325 0.88325 0.88325
0.88325 0.88325 0.88325 0.88325 0.88325 0.88325 0.88325 0.88325 0.88325
0.88325 0.8799 0.87655 0.86985 0.8665 0.86315 0.85645 0.84305 0.84305
0.84305 0.83635 0.82965 0.82965 0.82965 0.82965 0.82965 0.82965 0.82965
0.82965 0.83635 0.84305 0.8464 0.84975 0.84975 0.84975 0.84975 0.8531
0.85645 0.85645 0.85645 0.85645 0.85645 0.85645 0.85645 0.85645 0.85645
0.85645 0.85645 0.85645 0.85645 0.85645 0.85645 0.85645 0.85645 0.85645
0.85645 0.85645 0.85645 0.85645 0.85645 0.85645 0.85645 0.85645 0.85645
0.85645 0.85645 0.85645 0.85645 0.85645 0.85645 0.85645 0.85645 0.85645
0.84975 0.84975 0.84975 0.84975 0.84975 0.84975 0.84975 0.84975 0.84975
0.84975 0.84975 0.84975 0.84975 0.84975 0.84975 0.84975 0.84975 0.84975
0.84975 0.84975 0.84975 0.84975 0.84975 0.84975 0.84975 0.84975 0.84975
0.84975 0.84975 0.84975 0.84975 0.84975 0.84975 0.84975 0.84975 0.84975
0.84975 0.84975 0.84975 0.84975 0.84975 0.85645 0.85645 0.85645 0.85645
0.85645 0.85645 0.86315 0.86985 0.86985 0.86985 0.86985 0.86985 0.87655
0.87655 0.88325 0.88325 0.88325 0.88995 0.89665 0.90335 0.91005 0.91675
0.93685 0.93685 0.93685 0.93685 0.93685 0.93685 0.93685 0.93685 0.93685
0.93685 0.93685 0.93015 0.91675 0.91005 0.90335 0.88325 0.86985 0.86985
0.86315 0.84305 0.80285;
#X coords 0 2 256 -0.01 512 60 1;
#X restore 377 21 graph;
#N canvas 265 48 643 640 fft-analysis 0;
#X obj 15 164 *~;
#X obj 14 99 inlet~;
#X obj 15 218 rfft~;
#X obj 36 140 tabreceive~ \$0-hann;
#X obj 14 353 *~;
#X obj 56 353 *~;
#X obj 15 8 block~ 512 4;
#X text 85 88 The inlet~ now re-uses 3/4 of the previous block \, along
with the 128 new samples.;
#X text 221 141 window function as before.;
#X obj 76 196 tabreceive~ \$0-gain;
#X obj 77 225 *~;
#X obj 16 506 *~;
#X obj 37 481 tabreceive~ \$0-hann;
#X obj 77 283 /~ 768;
#X text 98 301 divide by 3N/2 (factor of N because rfft and rifft aren't
normalized \, and 3/2 is the gain of overlap-4 reconstruction when
Hann window function is applied twice.);
#X text 120 216 Just to show we're doing something \, we multiply each
channel by a gain controlled by an array in the main window. The control
is quartic-scaled for easy editing.;
#X obj 78 251 *~;
#X text 92 357 Multiply the (complex-valued) spectrum amplitudes by
the (real-valued) gain-and-normalization-factor;
#X obj 15 399 rifft~;
#X text 89 396 Real-valued inverse Fourier transform. This uses only
the first N/@ points of its inputs \, supplying the rest by symmerty
(so it's OK that rfft~ obly puts out those N/2 points.) There's only
one outlet because the output is real-valued.;
#X obj 16 566 outlet~;
#X text 88 499 Multiply by the Hann window function again \, necessary
because the operation we performed might result in a signal that doesn't
go smoothly to zero at both ends.;
#X text 89 566 This repackages the output into 64-sample chunks for
the parent window. Since we're operating with an overlap \, the outlet~
object performs an overlapped sum of the blocks computed in this window.
;
#X text 129 8 block~ object specifies vector size of 512 and overlap
four. This window now computes blocks of 512 samples at intervals of
128 samples computed on the parent patch.;
#X connect 0 0 2 0;
#X connect 1 0 0 0;
#X connect 2 0 4 0;
#X connect 2 1 5 0;
#X connect 3 0 0 1;
#X connect 4 0 18 0;
#X connect 5 0 18 1;
#X connect 9 0 10 0;
#X connect 9 0 10 1;
#X connect 10 0 16 0;
#X connect 10 0 16 1;
#X connect 11 0 20 0;
#X connect 12 0 11 1;
#X connect 13 0 4 1;
#X connect 13 0 5 1;
#X connect 16 0 13 0;
#X connect 18 0 11 0;
#X restore -2 246 pd fft-analysis;
#N canvas 35 66 592 433 Hann-window 0;
#N canvas 0 0 450 300 (subpatch) 0;
#X array \$0-hann 512 float 0;
#X coords 0 1 511 0 200 120 1;
#X restore 293 249 graph;
#X msg 171 263 0;
#X obj 65 312 osc~;
#X obj 65 264 samplerate~;
#X obj 65 335 *~ -0.5;
#X obj 65 358 +~ 0.5;
#X obj 57 383 tabwrite~ \$0-hann;
#X text 279 241 1;
#X text 272 359 0;
#X text 288 372 0;
#X obj 65 288 / 512;
#X obj 57 241 bng 15 250 50 0 empty empty empty 0 -6 0 8 -262144 -1
-1;
#X text 336 221 Hann window;
#X text 113 310 period 512;
#X text 90 215 recalculate Hann;
#X text 125 230 window table;
#X obj 57 146 loadbang;
#X msg 79 179 \; pd dsp 1;
#X text 40 27 The Hann window is now recomputed on 'loadbang' to make
the file smaller (it doesn't have to be saved with the array.);
#X text 474 375 511;
#X connect 1 0 2 1;
#X connect 2 0 4 0;
#X connect 3 0 10 0;
#X connect 4 0 5 0;
#X connect 5 0 6 0;
#X connect 10 0 2 0;
#X connect 11 0 3 0;
#X connect 11 0 1 0;
#X connect 11 0 6 0;
#X connect 16 0 11 0;
#X connect 16 0 17 0;
#X restore 580 150 pd Hann-window;
#N canvas 265 48 643 640 fft-analysis 0;
#X obj 15 164 *~;
#X obj 14 99 inlet~;
#X obj 15 218 rfft~;
#X obj 36 140 tabreceive~ \$0-hann;
#X obj 14 353 *~;
#X obj 56 353 *~;
#X obj 15 8 block~ 512 4;
#X text 85 88 The inlet~ now re-uses 3/4 of the previous block \, along
with the 128 new samples.;
#X text 221 141 window function as before.;
#X obj 76 196 tabreceive~ \$0-gain;
#X obj 77 225 *~;
#X obj 16 506 *~;
#X obj 37 481 tabreceive~ \$0-hann;
#X obj 77 283 /~ 768;
#X text 98 301 divide by 3N/2 (factor of N because rfft and rifft aren't
normalized \, and 3/2 is the gain of overlap-4 reconstruction when
Hann window function is applied twice.);
#X text 120 216 Just to show we're doing something \, we multiply each
channel by a gain controlled by an array in the main window. The control
is quartic-scaled for easy editing.;
#X obj 78 251 *~;
#X text 92 357 Multiply the (complex-valued) spectrum amplitudes by
the (real-valued) gain-and-normalization-factor;
#X obj 15 399 rifft~;
#X text 89 396 Real-valued inverse Fourier transform. This uses only
the first N/@ points of its inputs \, supplying the rest by symmerty
(so it's OK that rfft~ obly puts out those N/2 points.) There's only
one outlet because the output is real-valued.;
#X obj 16 566 outlet~;
#X text 88 499 Multiply by the Hann window function again \, necessary
because the operation we performed might result in a signal that doesn't
go smoothly to zero at both ends.;
#X text 89 566 This repackages the output into 64-sample chunks for
the parent window. Since we're operating with an overlap \, the outlet~
object performs an overlapped sum of the blocks computed in this window.
;
#X text 129 8 block~ object specifies vector size of 512 and overlap
four. This window now computes blocks of 512 samples at intervals of
128 samples computed on the parent patch.;
#X connect 0 0 2 0;
#X connect 1 0 0 0;
#X connect 2 0 4 0;
#X connect 2 1 5 0;
#X connect 3 0 0 1;
#X connect 4 0 18 0;
#X connect 5 0 18 1;
#X connect 9 0 10 0;
#X connect 9 0 10 1;
#X connect 10 0 16 0;
#X connect 10 0 16 1;
#X connect 11 0 20 0;
#X connect 12 0 11 1;
#X connect 13 0 4 1;
#X connect 13 0 5 1;
#X connect 16 0 13 0;
#X connect 18 0 11 0;
#X restore 324 244 pd fft-analysis;
#X obj 704 169 s \$0-gain;
#X msg 702 138 const 1;
#X obj -26 297 *~ 1;
#X obj 284 303 *~ 1;
#X obj -10 382 *~;
#X obj 35 386 *~;
#X obj 64 354 r mainVolume;
#X obj 302 371 *~;
#X obj 347 375 *~;
#X obj 376 343 r mainVolume;
#X obj 501 320 *~;
#X obj 530 288 r mainVolume;
#X obj 162 350 *~;
#X obj 191 318 r mainVolume;
#X obj 75 294 *~ 0.707;
#X obj 385 300 *~ 0.707;
#X obj 453 266 lop~ 120;
#X obj 168 261 *~ 0.5;
#X obj 94 518 writesf~ 6;
#X msg 99 403 start;
#X msg 101 429 stop;
#X msg -70 493 open -bytes 3 C:/vjdada1.wav;
#X obj -9 432 dac~ 7 3;
#X obj 298 427 dac~ 8 4;
#X connect 0 0 3 0;
#X connect 1 0 3 1;
#X connect 2 0 5 1;
#X connect 3 0 4 0;
#X connect 4 0 5 0;
#X connect 5 0 6 0;
#X connect 6 0 14 0;
#X connect 7 0 8 0;
#X connect 8 0 9 0;
#X connect 9 0 10 0;
#X connect 10 0 14 1;
#X connect 11 0 7 0;
#X connect 12 0 7 1;
#X connect 13 0 9 1;
#X connect 14 0 15 0;
#X connect 15 0 38 0;
#X connect 16 0 17 0;
#X connect 17 0 18 0;
#X connect 18 0 19 0;
#X connect 19 0 24 0;
#X connect 20 0 21 0;
#X connect 21 0 22 0;
#X connect 22 0 23 0;
#X connect 23 0 24 1;
#X connect 24 0 25 0;
#X connect 25 0 40 0;
#X connect 26 0 16 0;
#X connect 27 0 16 1;
#X connect 28 0 18 1;
#X connect 29 0 22 1;
#X connect 30 0 20 1;
#X connect 31 0 20 0;
#X connect 32 0 34 0;
#X connect 32 0 43 0;
#X connect 32 0 55 0;
#X connect 33 0 34 1;
#X connect 33 0 44 0;
#X connect 33 0 56 0;
#X connect 34 0 58 0;
#X connect 38 0 32 0;
#X connect 40 0 33 0;
#X connect 42 0 41 0;
#X connect 43 0 45 0;
#X connect 44 0 48 0;
#X connect 45 0 59 0;
#X connect 45 0 63 0;
#X connect 46 0 59 2;
#X connect 46 0 63 1;
#X connect 47 0 46 1;
#X connect 47 0 45 1;
#X connect 48 0 59 1;
#X connect 48 0 64 0;
#X connect 49 0 59 3;
#X connect 49 0 64 1;
#X connect 50 0 49 1;
#X connect 50 0 48 1;
#X connect 51 0 36 0;
#X connect 51 0 59 5;
#X connect 52 0 51 1;
#X connect 53 0 35 0;
#X connect 53 0 59 4;
#X connect 54 0 53 1;
#X connect 55 0 46 0;
#X connect 56 0 49 0;
#X connect 57 0 51 0;
#X connect 58 0 53 0;
#X connect 58 0 57 0;
#X connect 60 0 59 0;
#X connect 61 0 59 0;
#X connect 62 0 59 0;
#X restore 368 15 pd ooout;
#X text 1076 160 59 es buena;
#X obj 650 90 change;
#X msg 701 487 \$1 200;
#X msg 859 507 \$1 200;
#X msg 100 420 \$1 80;
#X msg 299 430 \$1 100;
#X obj 11 333 osc~ 220;
#X text 17 293 original 120;
#X floatatom -11 297 5 0 0 0 - - -;
#X text -35 280 fundamental;
#X obj -2 207 r fundamental;
#N canvas 60 291 932 317 fundamentales 1;
#X obj 144 5 inlet;
#X obj 55 152 sel 1 46 83 104 142 150 154 155 159 173 220 241 260 310
330 331 363;
#X obj 204 273 s fundamental;
#X msg 96 196 338;
#X msg 163 222 70;
#X msg 194 226 50;
#X msg 224 224 60;
#X msg 262 230 10;
#X msg 282 211 800;
#X msg 319 222 30000;
#X msg 329 202 60;
#X msg 361 216 900;
#X msg 127 192 60;
#X msg 34 194 100;
#X msg 424 201 0.05;
#X msg 213 82 120;
#X msg 391 200 45000;
#X msg 357 241 50;
#X msg 126 219 78;
#X msg 179 83 200;
#X msg 374 86 170;
#X msg 407 88 150;
#X msg 395 116 70;
#X msg 338 84 60;
#X obj 181 53 sel 39 15 16 28 29 51 60 90 121 111;
#X msg 416 63 100;
#X msg 244 80 50;
#X obj 252 109 bng 15 250 50 0 empty empty empty 17 7 0 10 -262144
-1 -1;
#X floatatom 454 14 5 0 0 0 - - -;
#X obj 569 250 s fundamental2;
#X msg 554 129 140;
#X msg 586 126 88000;
#X msg 230 198 40;
#X msg 708 131 70;
#X msg 271 83 360;
#X msg 302 81 950;
#X msg 65 196 360;
#X msg 740 121 360;
#X msg 803 119 360;
#X msg 832 120 720;
#X msg 750 185 900;
#X msg 864 243 70;
#X msg 799 184 1200;
#X msg 777 220 1500;
#X msg 695 200 70;
#X msg 640 126 1200;
#X msg 674 130 1500;
#X msg 471 133 70;
#X obj 558 77 sel 1 55 68 83 28 46 48 51 52 60 62 63 67 71 72 85;
#X obj 471 95 sel 85;
#X msg 826 217 1720;
#X connect 0 0 1 0;
#X connect 0 0 24 0;
#X connect 0 0 28 0;
#X connect 0 0 48 0;
#X connect 0 0 49 0;
#X connect 1 0 13 0;
#X connect 1 1 36 0;
#X connect 1 2 3 0;
#X connect 1 3 12 0;
#X connect 1 4 18 0;
#X connect 1 5 4 0;
#X connect 1 6 5 0;
#X connect 1 7 6 0;
#X connect 1 8 32 0;
#X connect 1 9 7 0;
#X connect 1 10 8 0;
#X connect 1 11 9 0;
#X connect 1 12 10 0;
#X connect 1 13 11 0;
#X connect 1 14 17 0;
#X connect 1 15 16 0;
#X connect 1 16 14 0;
#X connect 3 0 2 0;
#X connect 4 0 2 0;
#X connect 5 0 2 0;
#X connect 6 0 2 0;
#X connect 7 0 2 0;
#X connect 8 0 2 0;
#X connect 9 0 2 0;
#X connect 10 0 2 0;
#X connect 11 0 2 0;
#X connect 12 0 2 0;
#X connect 13 0 2 0;
#X connect 14 0 2 0;
#X connect 15 0 2 0;
#X connect 16 0 2 0;
#X connect 17 0 2 0;
#X connect 18 0 2 0;
#X connect 19 0 2 0;
#X connect 20 0 2 0;
#X connect 21 0 2 0;
#X connect 22 0 2 0;
#X connect 23 0 2 0;
#X connect 24 0 19 0;
#X connect 24 1 15 0;
#X connect 24 2 26 0;
#X connect 24 2 27 0;
#X connect 24 3 34 0;
#X connect 24 4 35 0;
#X connect 24 5 23 0;
#X connect 24 7 20 0;
#X connect 24 8 21 0;
#X connect 24 9 22 0;
#X connect 24 10 25 0;
#X connect 25 0 2 0;
#X connect 26 0 2 0;
#X connect 30 0 29 0;
#X connect 31 0 29 0;
#X connect 32 0 2 0;
#X connect 33 0 29 0;
#X connect 34 0 2 0;
#X connect 35 0 2 0;
#X connect 36 0 2 0;
#X connect 37 0 29 0;
#X connect 38 0 29 0;
#X connect 39 0 29 0;
#X connect 40 0 29 0;
#X connect 41 0 29 0;
#X connect 42 0 29 0;
#X connect 43 0 29 0;
#X connect 44 0 29 0;
#X connect 45 0 29 0;
#X connect 46 0 29 0;
#X connect 47 0 29 0;
#X connect 48 0 30 0;
#X connect 48 1 31 0;
#X connect 48 2 45 0;
#X connect 48 3 46 0;
#X connect 48 4 33 0;
#X connect 48 5 37 0;
#X connect 48 6 44 0;
#X connect 48 7 37 0;
#X connect 48 8 30 0;
#X connect 48 9 38 0;
#X connect 48 10 39 0;
#X connect 48 11 40 0;
#X connect 48 12 42 0;
#X connect 48 13 43 0;
#X connect 48 14 50 0;
#X connect 48 15 41 0;
#X connect 49 0 47 0;
#X connect 50 0 29 0;
#X restore 436 16 pd fundamentales;
#X floatatom 83 502 5 0 0 0 - - -;
#X obj 579 268 line;
#X floatatom -33 328 5 0 0 0 - - -;
#X obj 506 546 fdn~ 8 2000;
#X obj 760 647 fdn~ 8 2000;
#X msg 587 220 0.07 100;
#X obj 298 142 line 0 50;
#X obj 1107 73 s mainVolume;
#X obj 1107 0 loadbang;
#X obj 373 450 fdn~ 16 25000;
#X obj 202 492 fdn~ 16 25000;
#X obj -25 485 fdn~ 16 25000;
#X msg 1140 50 2.3;
#X msg 65 114 \$1 100;
#X msg 137 115 \$1 100;
#X msg 214 124 \$1 100;
#X msg 304 114 \$1 100;
#X msg 414 119 \$1 100;
#X msg 481 125 \$1 100;
#X msg 499 473 \$1 100;
#X msg 1107 47 1.65;
#X floatatom 270 294 5 0 0 0 - - -;
#X obj 1107 25 sel 100 1;
#X obj 273 258 r fundamental2;
#X obj -42 376 line 0 50;
#X msg -40 355 \$1 50;
#X obj 324 313 line 0 50;
#X msg 326 292 \$1 50;
#X floatatom 205 292 5 0 0 0 - - -;
#X obj 590 193 sel 159 142 331;
#N canvas 46 181 822 500 dinamicas 0;
#X obj 213 283 inlet;
#X obj 27 393 f;
#X obj 13 414 s v1;
#X obj 106 415 s v2;
#X obj 235 414 s v3;
#X obj 341 419 s v4;
#X obj 442 416 s v5;
#X obj 565 410 s v6;
#X obj 126 392 f;
#X obj 240 392 f;
#X obj 342 393 f;
#X obj 443 390 f;
#X obj 565 384 f;
#X obj 551 9 r part;
#X msg -1 392 0;
#X msg 96 392 0;
#X msg 207 392 0;
#X msg 311 389 0;
#X msg 412 391 0;
#X msg 534 383 0;
#X msg 419 39 1.75;
#X msg 455 38 2.05;
#X msg 305 38 0.07;
#X obj 617 214 s d1;
#X obj 499 176 s d2;
#X floatatom 566 34 5 0 0 0 - - -;
#X obj 53 392 r d1;
#X obj 151 393 r d2;
#X obj 267 392 r d3;
#X obj 368 394 r d4;
#X obj 468 390 r d5;
#X obj 591 386 r d6;
#X obj 212 310 sel 0 1 2 3 4 5 6;
#X msg 345 38 0.07;
#X obj 436 13 loadbang;
#X msg 384 39 0.47;
#X msg 553 76 0.07;
#X msg 575 98 0.25;
#X msg 592 77 0.2;
#X obj 297 70 s d1;
#X obj 339 71 s d2;
#X obj 377 71 s d3;
#X obj 414 71 s d4;
#X obj 451 69 s d5;
#X obj 493 72 s d6;
#X msg 639 77 0.2;
#X msg 611 127 0.1;
#X msg 545 154 0.1;
#X msg 650 142 0.2;
#X obj 556 53 sel 1 28 46 48 54 60 67 71 85;
#X msg 671 113 0.5;
#X msg 711 132 0.35;
#X msg 494 39 1.75;
#X connect 0 0 32 0;
#X connect 1 0 2 0;
#X connect 8 0 3 0;
#X connect 9 0 4 0;
#X connect 10 0 5 0;
#X connect 11 0 6 0;
#X connect 12 0 7 0;
#X connect 13 0 25 0;
#X connect 13 0 49 0;
#X connect 14 0 2 0;
#X connect 15 0 3 0;
#X connect 16 0 4 0;
#X connect 17 0 5 0;
#X connect 18 0 6 0;
#X connect 19 0 7 0;
#X connect 20 0 42 0;
#X connect 21 0 43 0;
#X connect 22 0 39 0;
#X connect 26 0 1 1;
#X connect 27 0 8 1;
#X connect 28 0 9 1;
#X connect 29 0 10 1;
#X connect 30 0 11 1;
#X connect 31 0 12 1;
#X connect 32 0 14 0;
#X connect 32 0 15 0;
#X connect 32 0 16 0;
#X connect 32 0 17 0;
#X connect 32 0 18 0;
#X connect 32 0 19 0;
#X connect 32 1 1 0;
#X connect 32 1 15 0;
#X connect 32 1 16 0;
#X connect 32 1 17 0;
#X connect 32 1 18 0;
#X connect 32 1 19 0;
#X connect 32 2 8 0;
#X connect 32 2 1 0;
#X connect 32 2 16 0;
#X connect 32 2 17 0;
#X connect 32 2 18 0;
#X connect 32 2 19 0;
#X connect 32 3 9 0;
#X connect 32 3 8 0;
#X connect 32 3 1 0;
#X connect 32 3 17 0;
#X connect 32 3 18 0;
#X connect 32 3 19 0;
#X connect 32 4 10 0;
#X connect 32 4 9 0;
#X connect 32 4 8 0;
#X connect 32 4 1 0;
#X connect 32 4 18 0;
#X connect 32 4 19 0;
#X connect 32 5 11 0;
#X connect 32 5 10 0;
#X connect 32 5 9 0;
#X connect 32 5 8 0;
#X connect 32 5 1 0;
#X connect 32 5 19 0;
#X connect 32 6 12 0;
#X connect 32 6 11 0;
#X connect 32 6 10 0;
#X connect 32 6 9 0;
#X connect 32 6 8 0;
#X connect 32 6 1 0;
#X connect 33 0 40 0;
#X connect 34 0 22 0;
#X connect 34 0 33 0;
#X connect 34 0 35 0;
#X connect 34 0 20 0;
#X connect 34 0 21 0;
#X connect 34 0 52 0;
#X connect 35 0 41 0;
#X connect 36 0 24 0;
#X connect 36 0 23 0;
#X connect 37 0 24 0;
#X connect 38 0 23 0;
#X connect 45 0 23 0;
#X connect 46 0 23 0;
#X connect 47 0 24 0;
#X connect 48 0 24 0;
#X connect 49 0 36 0;
#X connect 49 1 37 0;
#X connect 49 2 38 0;
#X connect 49 2 47 0;
#X connect 49 3 46 0;
#X connect 49 3 47 0;
#X connect 49 4 45 0;
#X connect 49 5 47 0;
#X connect 49 5 46 0;
#X connect 49 6 48 0;
#X connect 49 7 50 0;
#X connect 49 8 51 0;
#X connect 50 0 24 0;
#X connect 51 0 24 0;
#X connect 52 0 44 0;
#X restore -36 140 pd dinamicas;
#X obj 566 20 s part;
#X floatatom 12 74 5 0 0 0 - - -;
#X text 1 55 posicion del video;
#X msg 1057 61 2.5;
#X text 1045 38 inicio;
#X obj 145 49 OSCroute /position /nrblobs /areas /centroideX /centroideY
/parte /seccion;
#X obj 657 64 s seccion;
#X obj 657 33 change;
#X floatatom 608 67 5 0 0 0 - - -;
#X obj 197 212 / 4;
#X obj 298 198 / 4;
#X obj 397 196 / 4;
#X obj 481 192 / 4;
#X floatatom 567 151 1 0 0 0 - - -;
#X obj 537 169 spigot;
#N canvas 0 0 450 300 secciones 0;
#X obj 87 80 r seccion;
#X obj 87 110 sel 1 2 3 4;
#X msg 128 148 1;
#X msg 89 145 0;
#X obj 118 187 s s3n;
#X obj 157 186 s s3m;
#X msg 201 150 1;
#X msg 162 147 0;
#X floatatom 173 83 5 0 0 0 - - -;
#X connect 0 0 1 0;
#X connect 1 2 2 0;
#X connect 1 2 3 0;
#X connect 1 3 7 0;
#X connect 1 3 6 0;
#X connect 2 0 5 0;
#X connect 3 0 4 0;
#X connect 6 0 4 0;
#X connect 7 0 5 0;
#X connect 8 0 1 0;
#X restore 622 3 pd secciones;
#X obj 480 170 spigot 1;
#X obj 374 91 r s3n;
#X obj 409 92 r s3m;
#X obj 436 171 spigot;
#X obj 380 172 spigot 1;
#X obj 333 169 spigot;
#X obj 278 165 spigot 1;
#X obj 241 209 * 4;
#X obj 242 187 spigot;
#X obj 186 188 spigot 1;
#X obj 996 658 fdn~ 8 2000;
#X obj 332 191 * 1.33;
#X obj 435 201 * 1.83;
#X obj 538 191 * 5.3;
#X obj 941 621 spigot;
#X obj 883 620 spigot 1;
#X msg 885 643 \$1 45;
#X obj 931 584 r s3n;
#X obj 966 585 r s3m;
#X obj 1160 620 spigot;
#X obj 1102 619 spigot 1;
#X obj 1150 583 r s3n;
#X obj 1185 584 r s3m;
#X msg 1108 652 \$1 45;
#X obj 678 576 spigot;
#X obj 620 575 spigot 1;
#X obj 668 539 r s3n;
#X obj 703 540 r s3m;
#X msg 626 608 \$1 45;
#X msg 1154 652 \$1 145;
#X msg 933 653 \$1 145;
#X msg 672 608 \$1 145;
#X text -41 1 VJDADA;
#X text -41 12 ENRIQUE TOMAS 2010;
#X text -42 37 FUNDACION PHONOS;
#X text -41 27 WITH THE SUPPORT BY;
#X connect 0 0 180 0;
#X connect 0 1 181 0;
#X connect 0 2 182 0;
#X connect 0 3 183 0;
#X connect 0 4 184 0;
#X connect 0 5 185 0;
#X connect 1 0 159 0;
#X connect 2 0 160 0;
#X connect 3 0 186 0;
#X connect 4 0 239 0;
#X connect 4 0 238 0;
#X connect 5 0 229 0;
#X connect 5 0 228 0;
#X connect 6 0 234 0;
#X connect 6 0 233 0;
#X connect 7 0 203 0;
#X connect 8 0 100 0;
#X connect 9 0 223 0;
#X connect 9 0 222 0;
#X connect 10 0 218 0;
#X connect 10 0 217 0;
#X connect 11 0 212 0;
#X connect 11 0 214 0;
#X connect 12 0 23 0;
#X connect 13 0 28 0;
#X connect 14 0 33 0;
#X connect 15 0 38 0;
#X connect 16 0 43 0;
#X connect 17 0 48 0;
#X connect 18 0 99 0;
#X connect 19 0 22 1;
#X connect 20 0 178 0;
#X connect 21 0 19 0;
#X connect 22 0 20 0;
#X connect 23 0 20 1;
#X connect 23 0 167 0;
#X connect 24 0 27 1;
#X connect 25 0 177 0;
#X connect 26 0 24 0;
#X connect 27 0 25 0;
#X connect 28 0 25 1;
#X connect 29 0 32 1;
#X connect 30 0 176 0;
#X connect 31 0 29 0;
#X connect 32 0 30 0;
#X connect 33 0 30 1;
#X connect 34 0 37 1;
#X connect 35 0 170 0;
#X connect 36 0 34 0;
#X connect 37 0 35 0;
#X connect 38 0 35 1;
#X connect 39 0 42 1;
#X connect 40 0 171 0;
#X connect 41 0 39 0;
#X connect 42 0 40 0;
#X connect 43 0 40 1;
#X connect 44 0 47 1;
#X connect 45 0 224 0;
#X connect 46 0 44 0;
#X connect 47 0 45 0;
#X connect 48 0 45 1;
#X connect 49 0 71 0;
#X connect 50 0 136 0;
#X connect 50 1 137 0;
#X connect 51 0 52 0;
#X connect 51 1 53 0;
#X connect 51 2 54 0;
#X connect 51 3 55 0;
#X connect 51 4 56 0;
#X connect 51 5 57 0;
#X connect 52 0 61 0;
#X connect 53 0 78 0;
#X connect 54 0 88 0;
#X connect 58 0 138 0;
#X connect 58 1 139 0;
#X connect 59 0 140 0;
#X connect 59 1 141 0;
#X connect 60 1 62 0;
#X connect 61 0 49 0;
#X connect 62 0 73 0;
#X connect 63 0 64 0;
#X connect 63 1 65 0;
#X connect 63 2 66 0;
#X connect 63 3 67 0;
#X connect 63 4 68 0;
#X connect 63 5 69 0;
#X connect 64 0 70 0;
#X connect 65 0 80 0;
#X connect 66 0 90 0;
#X connect 70 0 72 0;
#X connect 71 0 60 0;
#X connect 72 0 60 1;
#X connect 73 0 74 0;
#X connect 74 0 75 0;
#X connect 75 0 128 0;
#X connect 75 0 157 0;
#X connect 76 0 81 0;
#X connect 77 1 79 0;
#X connect 78 0 76 0;
#X connect 79 0 83 0;
#X connect 80 0 82 0;
#X connect 81 0 77 0;
#X connect 82 0 77 1;
#X connect 83 0 84 0;
#X connect 84 0 85 0;
#X connect 85 0 129 0;
#X connect 85 0 158 0;
#X connect 86 0 91 0;
#X connect 87 1 89 0;
#X connect 88 0 86 0;
#X connect 89 0 93 0;
#X connect 90 0 92 0;
#X connect 91 0 87 0;
#X connect 92 0 87 1;
#X connect 93 0 94 0;
#X connect 94 0 95 0;
#X connect 95 0 130 0;
#X connect 95 0 135 0;
#X connect 96 0 178 1;
#X connect 97 0 177 1;
#X connect 98 0 176 1;
#X connect 99 0 21 0;
#X connect 100 0 26 0;
#X connect 101 0 47 0;
#X connect 102 0 42 0;
#X connect 103 0 37 0;
#X connect 104 0 156 0;
#X connect 104 0 189 0;
#X connect 104 0 196 0;
#X connect 105 0 111 0;
#X connect 106 0 110 1;
#X connect 108 0 107 0;
#X connect 108 0 107 1;
#X connect 109 0 106 0;
#X connect 111 0 108 1;
#X connect 112 0 110 0;
#X connect 113 0 123 0;
#X connect 114 0 122 0;
#X connect 115 0 119 1;
#X connect 116 0 119 0;
#X connect 117 0 116 0;
#X connect 118 0 115 0;
#X connect 119 0 120 0;
#X connect 120 0 108 0;
#X connect 121 0 117 0;
#X connect 122 0 105 0;
#X connect 123 0 121 0;
#X connect 125 0 27 0;
#X connect 126 0 197 0;
#X connect 127 0 32 0;
#X connect 131 0 58 1;
#X connect 133 0 50 1;
#X connect 134 0 59 1;
#X connect 135 0 134 0;
#X connect 136 0 143 0;
#X connect 137 0 142 0;
#X connect 138 0 144 0;
#X connect 139 0 145 0;
#X connect 140 0 146 0;
#X connect 141 0 147 0;
#X connect 156 0 113 0;
#X connect 157 0 133 0;
#X connect 158 0 131 0;
#X connect 159 0 12 0;
#X connect 160 0 13 0;
#X connect 161 0 22 0;
#X connect 165 0 163 0;
#X connect 165 0 192 0;
#X connect 168 0 23 0;
#X connect 169 0 161 0;
#X connect 170 0 148 0;
#X connect 170 1 149 0;
#X connect 171 0 150 0;
#X connect 171 0 151 0;
#X connect 172 0 168 0;
#X connect 173 0 220 0;
#X connect 173 0 219 0;
#X connect 175 0 201 0;
#X connect 176 0 59 0;
#X connect 177 0 58 0;
#X connect 178 0 50 0;
#X connect 179 0 174 0;
#X connect 180 0 18 0;
#X connect 181 0 8 0;
#X connect 182 0 9 0;
#X connect 183 0 173 0;
#X connect 184 0 10 0;
#X connect 185 0 11 0;
#X connect 186 0 14 0;
#X connect 187 0 174 0;
#X connect 189 0 179 0;
#X connect 189 1 187 0;
#X connect 190 0 188 0;
#X connect 190 0 194 0;
#X connect 191 0 161 0;
#X connect 192 0 191 0;
#X connect 193 0 125 0;
#X connect 194 0 193 0;
#X connect 195 0 125 0;
#X connect 196 0 172 0;
#X connect 196 1 172 0;
#X connect 201 0 174 0;
#X connect 203 0 199 0;
#X connect 203 1 124 0;
#X connect 203 1 126 0;
#X connect 203 2 0 0;
#X connect 203 3 51 0;
#X connect 203 4 63 0;
#X connect 203 5 104 0;
#X connect 203 5 166 0;
#X connect 203 5 198 0;
#X connect 203 6 205 0;
#X connect 205 0 204 0;
#X connect 205 0 206 0;
#X connect 207 0 31 0;
#X connect 208 0 36 0;
#X connect 209 0 41 0;
#X connect 210 0 46 0;
#X connect 211 0 212 1;
#X connect 212 0 227 0;
#X connect 214 0 210 0;
#X connect 215 0 214 1;
#X connect 215 0 218 1;
#X connect 215 0 220 1;
#X connect 215 0 223 1;
#X connect 216 0 212 1;
#X connect 216 0 217 1;
#X connect 216 0 219 1;
#X connect 216 0 222 1;
#X connect 217 0 226 0;
#X connect 218 0 209 0;
#X connect 219 0 225 0;
#X connect 220 0 208 0;
#X connect 221 0 31 0;
#X connect 222 0 221 0;
#X connect 223 0 207 0;
#X connect 224 0 152 0;
#X connect 224 1 153 0;
#X connect 225 0 36 0;
#X connect 226 0 41 0;
#X connect 227 0 46 0;
#X connect 228 0 244 0;
#X connect 229 0 230 0;
#X connect 230 0 16 0;
#X connect 231 0 229 1;
#X connect 232 0 228 1;
#X connect 233 0 243 0;
#X connect 234 0 237 0;
#X connect 235 0 234 1;
#X connect 236 0 233 1;
#X connect 237 0 17 0;
#X connect 238 0 245 0;
#X connect 239 0 242 0;
#X connect 240 0 239 1;
#X connect 241 0 238 1;
#X connect 242 0 15 0;
#X connect 243 0 17 0;
#X connect 244 0 16 0;
#X connect 245 0 15 0;
